<?xml version="1.0" encoding="utf-8"?>
<!-- Generator: Adobe Illustrator 24.0.2, SVG Export Plug-In . SVG Version: 6.00 Build 0)  -->
<svg version="1.1" id="layer" xmlns="http://www.w3.org/2000/svg" xmlns:xlink="http://www.w3.org/1999/xlink" x="0px" y="0px"
	 viewBox="0 0 628 82" style="enable-background:new 0 0 628 82;" xml:space="preserve">
<style type="text/css">
	.st0{fill:#FFFFFF;}
</style>
<g>
	<path class="st0" d="M64.1,26.3v-5.2c0-0.7,0.5-1.3,1.2-1.3h4.9c0.8,0,1.4,0.6,1.4,1.3v5.2c0,0.8-0.5,1.4-1.3,1.4l0,0h-4.8
		C64.7,27.7,64.1,27.2,64.1,26.3"/>
	<path class="st0" d="M75.1,67.9c0,2.5-2,4.6-4.3,4.6H19.6c-2.4,0-4.4-2.1-4.4-4.6V20.7c0-2.5,2-4.6,4.4-4.6h51.2
		c2.4,0,4.3,2.1,4.3,4.6V67.9z M70.8,13.8H19.6c-3.6,0-6.6,3.1-6.7,6.8v47.2c0,4.4,2.1,6.9,6.7,6.9h51.2c1.8,0,3.5-0.8,4.6-2.1
		c1.2-1.3,1.9-3,1.9-4.9V20.5C77.4,16.9,74.4,13.8,70.8,13.8"/>
	<path class="st0" d="M49.7,38.1c0,0.7-0.6,1.3-1.2,1.3h-3.1c-0.7,0-1.2-0.4-1.2-1.3v-6.9c0-1.1,0.9-2,1.9-2h1.7c1,0,1.9,0.9,1.9,2
		C49.7,31.2,49.7,38.1,49.7,38.1z M70.2,30.5h-4.8c-0.7,0-1.3,0.6-1.3,1.3v25.3c0,1.8-1.9,2-1.9,2h-2.8c-1,0-1.9-1-1.9-2V26.5
		c0-3.6-2.9-6.7-6.4-6.7h-8.3c-3.5,0-6.4,3-6.4,6.7v30.6c0,1.5-0.8,2-1.9,2h-5.7c-1.2,0-2-0.7-1.9-2V32c0-1.1,0.9-2,1.9-2h2.1
		c0.7,0,1.2-0.5,1.2-1.3V21c0-0.7-0.6-1.3-1.2-1.3h-5.6c-3.5,0-6.3,3.1-6.4,6.7V62c0.1,4.2,2.4,6.8,6.4,6.7h12.6
		c3.5,0,6.4-3.1,6.4-6.7V48.8c0-0.7,0.5-1.3,1.2-1.3h3.2c0.7,0,1.1,0.6,1.1,1.3V62c0,3.7,2.9,6.7,6.4,6.7h9.1c3.5,0,6.3-3.1,6.3-6.7
		V31.7C71.5,31.1,71,30.5,70.2,30.5"/>
	<path class="st0" d="M130.7,37.7v-0.5c0-1.9-0.5-3.2-1.4-4.1c-0.9-0.8-2.3-1.3-4.3-1.3h-8.6c-3.7,0-6.1,0.6-7.1,1.8
		c-1,1.2-1.6,3.8-1.6,7.6v6.6c0,3.4,0.6,5.8,1.8,7.1c1.2,1.3,3.5,2,7,2h6.3c3.4,0,5.7-0.5,6.7-1.4c1.1-0.9,1.6-2.7,1.6-5.2v-0.5H142
		c0,0.1,0,0.2,0,0.4c0.1,1.4,0.1,2.4,0.1,3.1c0,3-0.3,5.6-0.9,7.5c-0.5,2-1.5,3.6-2.7,4.8c-1.2,1.2-2.7,1.9-4.6,2.4
		c-1.9,0.5-4.7,0.7-8.5,0.7h-12c-3.7,0-6.4-0.2-8.1-0.8c-1.7-0.5-3.2-1.4-4.5-2.7c-1.4-1.5-2.5-3.4-3.1-5.6c-0.6-2.3-1-5-1-8.4v-13
		c0-6.8,1.2-11.5,3.6-14.3c2.4-2.7,6.7-4,13.1-4h12c3.9,0,6.7,0.2,8.6,0.7c1.8,0.5,3.3,1.3,4.3,2.4c1.1,1.2,2,2.7,2.5,4.7
		c0.5,1.9,0.8,4.4,0.8,7.4v1.6c0,0.4,0,0.7-0.1,1.1h-10.8V37.7z"/>
	<path class="st0" d="M167.6,56.8h6.9c3.8,0,6.4-0.7,7.6-2c1.3-1.3,1.9-3.7,1.9-7.2v-6.7c0-3.5-0.6-5.9-1.9-7.2
		c-1.2-1.3-3.8-1.9-7.6-1.9h-6.9c-3.9,0-6.4,0.7-7.7,2c-1.2,1.3-1.8,3.8-1.8,7.4v6.6c0,3.4,0.6,5.8,1.9,7.1
		C161.3,56.1,163.8,56.8,167.6,56.8 M164.7,68.7c-4.1,0-7.1-0.3-9.1-0.8c-1.9-0.5-3.5-1.3-4.7-2.6c-1.4-1.4-2.3-3.2-2.9-5.3
		c-0.6-2.3-0.9-5.2-0.9-8.8v-13c0-3.9,0.3-7.1,0.9-9.4c0.6-2.4,1.6-4.2,2.9-5.6c1.2-1.2,2.8-2,4.7-2.6c1.9-0.5,5-0.7,9-0.7h12.7
		c4,0,7,0.2,9,0.7c2,0.6,3.6,1.4,4.7,2.6c1.3,1.4,2.3,3.2,2.9,5.5c0.6,2.3,0.9,5.3,0.9,8.9v13.3c0,3.7-0.3,6.7-0.9,9
		c-0.6,2.3-1.6,4.1-2.9,5.5c-1.2,1.2-2.8,2.1-4.7,2.6s-5,0.7-9,0.7L164.7,68.7z"/>
	<path class="st0" d="M201.3,20.4h10.8v28.3c0,3.2,0.5,5.4,1.6,6.5s3.5,1.6,7.1,1.6h6.1c3,0,5.1-0.6,6.1-1.8c1-1.2,1.6-3.3,1.6-6.4
		V20.3h10.8v32.8c0,5.6-1.1,9.6-3.3,11.9c-2.3,2.4-6.1,3.5-11.6,3.5h-12.1c-6.5,0-10.9-1.1-13.3-3.3c-2.4-2.2-3.6-6.3-3.6-12.1V20.4
		H201.3z"/>
	<polygon class="st0" points="300.2,68.1 284.4,68.1 263.2,33.5 263.2,68.1 252.4,68.1 252.4,20.5 268.4,20.5 289.4,55.4 
		289.4,20.5 300.2,20.5 	"/>
	<polygon class="st0" points="330.3,68.1 319.5,68.1 319.5,32.1 304.7,32.1 304.7,20.5 345.1,20.5 345.1,32.1 330.3,32.1 	"/>
	<path class="st0" d="M378.4,20.4c5.6,0,9.4,1.2,11.4,3.3c2,2.2,3,6.3,3,12.3c0,4.1-0.5,7.2-1.3,9.2c-0.9,2-2.4,3.3-4.6,4
		c1.9,0.6,3.3,1.7,4.2,3.2c0.9,1.5,1.4,3.5,1.4,5.9v9.8h-10.8v-7.3c0-1.9-0.3-3.2-1-3.8c-0.6-0.7-1.9-1.1-3.9-1.1h-16.1v12.2H350
		V20.4H378.4z M378,32.3h-17.2V44H378c1.4,0,2.4-0.5,3-1.4c0.6-0.8,0.9-2.5,0.9-4.9c0-1.9-0.3-3.2-0.9-4.1
		C380.3,32.7,379.3,32.3,378,32.3"/>
	<polygon class="st0" points="425.4,68.1 414.6,68.1 414.6,51 395.1,20.5 408.4,20.5 420,39.4 432.1,20.5 444.9,20.5 425.4,51 	"/>
	<polygon class="st0" points="459.3,68.1 448.8,68.1 448.8,20.5 464.7,20.5 477.3,50.2 490.1,20.5 505.8,20.5 505.8,68.1 
		495.4,68.1 495.4,34.1 480.8,68.1 473.7,68.1 459.3,34.1 	"/>
	<path class="st0" d="M521.3,68.1h-11.8l19.3-47.7h13.8l18.9,47.7h-11.9l-3.4-8h-21.5L521.3,68.1z M528.8,48.7h13.6l-6.9-16.9
		L528.8,48.7z"/>
	<polygon class="st0" points="612.9,68.1 597.1,68.1 576,33.5 576,68.1 565.2,68.1 565.2,20.5 581.2,20.5 602.2,55.4 602.2,20.5 
		612.9,20.5 	"/>
</g>
</svg>
