<?xml version="1.0" encoding="utf-8"?>
<!-- Generator: Adobe Illustrator 19.2.1, SVG Export Plug-In . SVG Version: 6.00 Build 0)  -->
<svg version="1.1" id="layer" xmlns="http://www.w3.org/2000/svg" xmlns:xlink="http://www.w3.org/1999/xlink" x="0px" y="0px"
	 viewBox="0 0 652 652" style="enable-background:new 0 0 652 652;" xml:space="preserve">
<g>
	<path d="M77.1,308.3v-5.2c0-0.7,0.5-1.3,1.2-1.3h4.9c0.8,0,1.4,0.6,1.4,1.3l0,5.2c0,0.8-0.5,1.4-1.3,1.4h0h-4.8
		C77.7,309.7,77.1,309.2,77.1,308.3"/>
	<path d="M88.1,349.9c0,2.5-2,4.6-4.3,4.6l-51.2,0c-2.4,0-4.4-2.1-4.4-4.6v-47.2c0-2.5,2-4.6,4.4-4.6h51.2c2.4,0,4.3,2.1,4.3,4.6
		V349.9z M83.8,295.8H32.6c-3.6,0-6.6,3.1-6.7,6.8v47.2c0,4.4,2.1,6.9,6.7,6.9h51.2c1.8,0,3.5-0.8,4.6-2.1c1.2-1.3,1.9-3,1.9-4.9
		l0-47.2C90.4,298.9,87.4,295.8,83.8,295.8"/>
	<path d="M62.7,320.1c0,0.7-0.6,1.3-1.2,1.3h-3.1c-0.7,0-1.2-0.4-1.2-1.3v-6.9c0-1.1,0.9-2,1.9-2h1.7c1,0,1.9,0.9,1.9,2V320.1z
		 M83.2,312.5h-4.8c-0.7,0-1.3,0.6-1.3,1.3v25.3c0,1.8-1.9,2-1.9,2h-2.8c-1,0-1.9-1-1.9-2v-30.6c0-3.6-2.9-6.7-6.4-6.7h-8.3
		c-3.5,0-6.4,3-6.4,6.7v30.6c0,1.5-0.8,2-1.9,2h-5.7c-1.2,0-2-0.7-1.9-2v-25.1c0-1.1,0.9-2,1.9-2h2.1c0.7,0,1.2-0.5,1.2-1.3v-7.7
		c0-0.7-0.6-1.3-1.2-1.3h-5.6c-3.5,0-6.3,3.1-6.4,6.7v35.6c0.1,4.2,2.4,6.8,6.4,6.7h12.6c3.5,0,6.4-3.1,6.4-6.7v-13.2
		c0-0.7,0.5-1.3,1.2-1.3h3.2c0.7,0,1.1,0.6,1.1,1.3v13.2c0,3.7,2.9,6.7,6.4,6.7h9.1c3.5,0,6.3-3.1,6.3-6.7l0-30.3
		C84.5,313.1,84,312.5,83.2,312.5"/>
	<path d="M143.7,319.7v-0.5c0-1.9-0.5-3.2-1.4-4.1c-0.9-0.8-2.3-1.3-4.3-1.3h-8.6c-3.7,0-6.1,0.6-7.1,1.8c-1,1.2-1.6,3.8-1.6,7.6
		v6.6c0,3.4,0.6,5.8,1.8,7.1c1.2,1.3,3.5,2,7,2h6.3c3.4,0,5.7-0.5,6.7-1.4c1.1-0.9,1.6-2.7,1.6-5.2v-0.5h10.9c0,0.1,0,0.2,0,0.4
		c0.1,1.4,0.1,2.4,0.1,3.1c0,3-0.3,5.6-0.9,7.5c-0.5,2-1.5,3.6-2.7,4.8c-1.2,1.2-2.7,1.9-4.6,2.4c-1.9,0.5-4.7,0.7-8.5,0.7h-12
		c-3.7,0-6.4-0.2-8.1-0.8c-1.7-0.5-3.2-1.4-4.5-2.7c-1.4-1.5-2.5-3.4-3.1-5.6c-0.6-2.3-1-5-1-8.4v-13c0-6.8,1.2-11.5,3.6-14.3
		c2.4-2.7,6.7-4,13.1-4h12c3.9,0,6.7,0.2,8.6,0.7c1.8,0.5,3.3,1.3,4.3,2.4c1.1,1.2,2,2.7,2.5,4.7c0.5,1.9,0.8,4.4,0.8,7.4v1.6
		c0,0.4,0,0.7-0.1,1.1H143.7z"/>
	<path d="M180.6,338.8h6.9c3.8,0,6.4-0.7,7.6-2c1.3-1.3,1.9-3.7,1.9-7.2v-6.7c0-3.5-0.6-5.9-1.9-7.2c-1.2-1.3-3.8-1.9-7.6-1.9h-6.9
		c-3.9,0-6.4,0.7-7.7,2c-1.2,1.3-1.8,3.8-1.8,7.4v6.6c0,3.4,0.6,5.8,1.9,7.1C174.3,338.1,176.8,338.8,180.6,338.8 M177.7,350.7
		c-4.1,0-7.1-0.3-9.1-0.8c-1.9-0.5-3.5-1.3-4.7-2.6c-1.4-1.4-2.3-3.2-2.9-5.3c-0.6-2.3-0.9-5.2-0.9-8.8v-13c0-3.9,0.3-7.1,0.9-9.4
		c0.6-2.4,1.6-4.2,2.9-5.6c1.2-1.2,2.8-2,4.7-2.6c1.9-0.5,5-0.7,9-0.7h12.7c4,0,7,0.2,9,0.7c2,0.6,3.6,1.4,4.7,2.6
		c1.3,1.4,2.3,3.2,2.9,5.5c0.6,2.3,0.9,5.3,0.9,8.9v13.3c0,3.7-0.3,6.7-0.9,9c-0.6,2.3-1.6,4.1-2.9,5.5c-1.2,1.2-2.8,2.1-4.7,2.6
		c-1.9,0.5-5,0.7-9,0.7L177.7,350.7z"/>
	<path d="M214.3,302.4h10.8v28.3c0,3.2,0.5,5.4,1.6,6.5c1.1,1.1,3.5,1.6,7.1,1.6h6.1c3,0,5.1-0.6,6.1-1.8c1-1.2,1.6-3.3,1.6-6.4
		v-28.3h10.8v32.8c0,5.6-1.1,9.6-3.3,11.9c-2.3,2.4-6.1,3.5-11.6,3.5h-12.1c-6.5,0-10.9-1.1-13.3-3.3c-2.4-2.2-3.6-6.3-3.6-12.1
		V302.4z"/>
	<polygon points="313.2,350.1 297.4,350.1 276.2,315.5 276.2,350.1 265.4,350.1 265.4,302.5 281.4,302.5 302.4,337.4 302.4,302.5 
		313.2,302.5 	"/>
	<polygon points="343.3,350.1 332.5,350.1 332.5,314.1 317.7,314.1 317.7,302.5 358.1,302.5 358.1,314.1 343.3,314.1 	"/>
	<path d="M391.4,302.4c5.6,0,9.4,1.2,11.4,3.3c2,2.2,3,6.3,3,12.3c0,4.1-0.5,7.2-1.3,9.2c-0.9,2-2.4,3.3-4.6,4
		c1.9,0.6,3.3,1.7,4.2,3.2c0.9,1.5,1.4,3.5,1.4,5.9v9.8h-10.8v-7.3c0-1.9-0.3-3.2-1-3.8c-0.6-0.7-1.9-1.1-3.9-1.1h-16.1v12.2H363
		v-47.7H391.4z M391,314.3h-17.2V326H391c1.4,0,2.4-0.5,3-1.4c0.6-0.8,0.9-2.5,0.9-4.9c0-1.9-0.3-3.2-0.9-4.1
		C393.3,314.7,392.3,314.3,391,314.3"/>
	<polygon points="438.4,350.1 427.6,350.1 427.6,333 408.1,302.5 421.4,302.5 433,321.4 445.1,302.5 457.9,302.5 438.4,333 	"/>
	<polygon points="472.3,350.1 461.8,350.1 461.8,302.5 477.7,302.5 490.3,332.2 503.1,302.5 518.8,302.5 518.8,350.1 508.4,350.1 
		508.4,316.1 493.8,350.1 486.7,350.1 472.3,316.1 	"/>
	<path d="M534.3,350.1h-11.8l19.3-47.7h13.8l18.9,47.7h-11.9l-3.4-8h-21.5L534.3,350.1z M541.8,330.7h13.6l-6.9-16.9L541.8,330.7z"
		/>
	<polygon points="625.9,350.1 610.1,350.1 589,315.5 589,350.1 578.2,350.1 578.2,302.5 594.2,302.5 615.2,337.4 615.2,302.5 
		625.9,302.5 	"/>
</g>
</svg>
