<?xml version="1.0" encoding="utf-8"?>
<!-- Generator: Adobe Illustrator 24.0.1, SVG Export Plug-In . SVG Version: 6.00 Build 0)  -->
<svg version="1.1" id="Layer_1" xmlns="http://www.w3.org/2000/svg" xmlns:xlink="http://www.w3.org/1999/xlink" x="0px" y="0px"
	 viewBox="0 0 600 100.9" style="enable-background:new 0 0 600 100.9;" xml:space="preserve">
<style type="text/css">
	.st0{fill:#00A0DA;}
	.st1{stroke:#FFFFFF;stroke-width:4;stroke-linecap:round;stroke-linejoin:round;stroke-miterlimit:9;}
	.st2{fill:#FFFFFF;}
</style>
<path class="st0" d="M93.7,51.8c0,21.9-17.8,39.7-39.7,39.7c-21.9,0-39.7-17.8-39.7-39.7C14.2,29.9,32,12.1,54,12.1
	C75.9,12.1,93.7,29.9,93.7,51.8z"/>
<path class="st1" d="M25.1,34.9l38.2,35.4l1.6,1.7l1.6-0.7l1.6-1l1.3-0.9c0,0,1.9,2.1,2.6,2.6c1.3,1,4.1,3.6,4.1,3.6l11.1,10.4
	l7.7,7.8l0.9,1.4c0,0,1.7,1.3,2.3,0.8c0.6-0.6,0.6-0.9,0.4-1.9c-0.2-1-1.6-1.2-1.6-1.2l-7.4-7.2l-9-9.8L74.3,69l-1.9-2.3l1.2-1.2
	l1.7-1.8l-1-1.4l-3.1-3.7L59.2,45.2l-15.7-16l-5.5-6c0,0,0.3-3.2-0.7-6.7c-1-3.5-4-8.2-8.7-9.6C25,5.6,19.5,5.7,15.9,7.4
	C12.3,9,9,13.9,8.7,18.4c-0.4,5.3,1.6,8.6,3.7,10.8C14.2,30.9,18,34.8,25.1,34.9z"/>
<path d="M25.1,34.9l38.5,35.6l1.3,1.4l1.6-0.7l1.6-1l1.3-0.9c0,0,1.9,2.1,2.6,2.6c1.3,1,4,3.1,4,3.1l11.2,11l7.7,7.8l0.9,1.4
	c0,0,1.7,1.3,2.3,0.8c0.6-0.6,0.6-0.9,0.4-1.9c-0.2-1-1.6-1.2-1.6-1.2l-7.4-7.2l-9.1-9.4l-6.1-7.3l-1.9-2.3l1.2-1.2l1.7-1.8l-1-1.4
	l-3.1-3.7L59.2,45.2l-15.7-16l-5.5-6c0,0,0.3-3.2-0.7-6.7c-1-3.5-4-8.2-8.7-9.6C25,5.7,19.5,5.8,15.9,7.4c-3.6,1.7-6.9,6.5-7.2,11
	c-0.4,5.3,1.6,8.6,3.7,10.8C14.2,31,18,34.8,25.1,34.9z"/>
<g>
	<path class="st2" d="M112.4,69.7c0.4,0,0.9,0.3,1.5,0.9c1.7,1.9,3.8,3.4,6.3,4.5c2.5,1.1,5,1.7,7.4,1.7c2.7,0,4-0.8,4-2.5c0-1-0.5-2.2-1.4-3.5
		c-0.9-1.3-3.2-3.9-6.8-7.7c-4.5-4.9-7.5-8.5-9-10.8c-2-3.1-3-6.1-3-8.9c0-4.2,1.9-7.7,5.7-10.4c3.7-2.7,8.3-4,13.7-4
		c3.8,0,7.3,0.8,10.5,2.3c1.2,0.6,2.2,1.3,3.1,2.1c0.9,0.8,1.3,1.4,1.3,2c0,0.3-0.1,0.5-0.4,0.7c-0.2,0.2-0.5,0.3-0.7,0.3
		c-0.4,0-1-0.4-1.7-1.1c-1.2-1.2-2.9-2.1-4.9-2.9c-2-0.8-4-1.2-5.8-1.2c-1.2,0-2.1,0.2-2.8,0.7c-0.7,0.5-1.1,1.1-1.1,1.9
		c0,0.9,0.4,2.1,1.3,3.5c0.9,1.4,2.4,3.2,4.6,5.4c6.8,7.2,10.9,12.1,12.5,14.6c1.6,2.7,2.4,5.2,2.4,7.7c0,2.1-0.6,4.1-1.7,5.9
		c-1.1,1.9-2.7,3.4-4.7,4.6c-3.8,2.3-8.5,3.4-14,3.4c-5.1,0-9.5-1.3-13.4-3.9c-2.7-1.8-4-3.3-4-4.3c0-0.3,0.1-0.6,0.4-0.8
		C111.8,69.8,112.1,69.7,112.4,69.7z"/>
	<path class="st2" d="M186.4,32.8l-0.2,10.8l-0.1,10.3l0.1,23.8h-21.1l0.2-27.6l-0.1-9.4l-0.1-8l-4.6,0.1l-6.5,0.1l-1,0c-1.1,0-1.7-0.4-1.7-1.2
		c0-0.7,0.3-1.2,1-1.2c0.2,0,0.7-0.1,1.7-0.1h42.4c1.5,0,2.4,0.1,2.6,0.2c0.5,0.2,0.7,0.6,0.7,1.2c0,0.8-0.6,1.2-1.8,1.2l-3-0.1
		l-8-0.1H186.4z"/>
	<path class="st2" d="M228.6,27.7l27.7,50h-24l-3.3-6.3h-11.6l-10.2,0l-1.7,0l-2.3,4.2c-0.7,1.3-1.1,2.1-1.4,2.4c-0.3,0.3-0.6,0.5-1,0.5
		c-0.8,0-1.2-0.3-1.2-1c0-0.3,0.2-0.9,0.7-1.7c0.5-0.8,2-3.5,4.7-8.1l20.9-35.2L228.6,27.7z M217.9,50.4l-6,10.2l-4.8,8.4l10.3,0.1
		l10.4-0.1L217.9,50.4z"/>
	<path class="st2" d="M307.5,53.9c-0.1,6.8-2.3,12.6-6.6,17.2c-2.4,2.6-5.2,4.5-8.5,6c-3.3,1.4-6.6,2.1-10.2,2.1c-3,0-6-0.6-9-1.7
		c-3-1.2-5.6-2.8-7.9-4.8c-2.9-2.7-5.1-5.9-6.5-9.7c-1.1-3-1.7-6-1.7-8.9c0-5.5,1.7-10.5,5.1-14.9c2.3-3.1,5.3-5.6,8.8-7.3
		c3.5-1.8,7.2-2.6,11.1-2.6c6.8,0,12.7,2.3,17.6,7c2.2,2.1,3.3,3.6,3.3,4.5c0,0.3-0.1,0.6-0.4,0.8c-0.2,0.2-0.5,0.3-0.9,0.3
		c-0.5,0-1.1-0.4-1.7-1.2c-4.6-6.2-10.6-9.2-17.8-9.2c-0.9,0-1.8,0.1-2.7,0.2l-0.2,24.6l0.2,20.9c0.9,0.2,1.7,0.2,2.6,0.2
		c2.6,0,5.1-0.4,7.6-1.3c6.2-2.2,10.6-6.2,13.3-12.1c1.2-2.5,1.8-5,2-7.5h-18.1c-1.6,0-2.5-0.1-2.9-0.2c-0.3-0.1-0.5-0.4-0.5-0.9
		c0-0.7,0.6-1.1,1.7-1.1l2.1,0H307.5z"/>
	<path class="st2" d="M334.1,45.6c0,1.1-0.1,2.4-0.1,3.9v2.1l0.2,23.9l11.7-0.1l8.3-0.1c1.4,0,2,0.4,2,1.2c0,0.7-0.3,1.1-1,1.2
		c-0.2,0-1.1,0-2.9,0.1h-39.3l0-1.8l0-11.6l0.1-12.4l-0.3-21.5h36.7c1.6,0,2.6,0,2.8,0.1c0.5,0.1,0.8,0.5,0.8,1.2
		c0,0.8-0.5,1.2-1.5,1.2h-0.2l-17.3-0.2l-0.1,10.7l3.8,0l12.1-0.2l2.7,0c1,0,1.6,0.1,1.9,0.2c0.3,0.2,0.5,0.5,0.5,1
		c0,0.9-0.8,1.4-2.3,1.4l-2.7-0.1L334.1,45.6z"/>
</g>
<g>
	<g>
		<path class="st0" d="M364.8,24.3l-0.6,3.2l0.2,1.4l0.4,1.7l10.5,36.7l12.5-43.6l12.9,44.8l11.2-38l0.4-2.1l0.2-2.2v-2.1h8.1
			c-1,1.6-1.8,3.1-2.4,4.5l-1.8,5.5L403.5,78l-4.6,0l-11-37l-10.7,37l-4.1,0l-12.9-43.7c-0.8-2.8-1.4-4.7-1.9-5.8
			c-0.5-1.1-1.4-2.5-2.8-4.2H364.8z"/>
		<path class="st0" d="M422,71.4V47.2c0-1.9-0.5-4-1.4-6.2h8c-0.9,2.7-1.4,4.7-1.4,6.2v24.3c0,1.3,0.1,2.3,0.2,3.1
			c0.2,0.8,0.6,1.9,1.2,3.4h-8c0.6-1.3,1-2.3,1.2-3.1C421.9,74.2,422,73,422,71.4z M424.7,27.4c0.9,0,1.8,0.3,2.4,1
			c0.7,0.6,1.1,1.4,1.1,2.5c0,0.9-0.3,1.7-1,2.3c-0.7,0.6-1.5,1-2.5,1c-0.9,0-1.8-0.3-2.5-0.9c-0.7-0.6-1.1-1.4-1.1-2.3
			c0-0.9,0.3-1.8,1-2.5C422.7,27.8,423.6,27.4,424.7,27.4z"/>
		<path class="st0" d="M438.9,71.4V47.2c0-1.6-0.4-3.6-1.3-6.2h6.5v6.6c0.7-1.4,1.4-2.5,2-3.1c0.2-0.2,0.6-0.6,1.1-1
			c0.9-0.7,1.4-1.1,1.5-1.2c1.1-0.7,2-1.2,2.8-1.4c0.8-0.3,2-0.4,3.5-0.4c-0.1,0.8-0.2,1.4-0.3,1.7c-0.1,0.3-0.2,0.8-0.4,1.3
			l-0.2,3.3c-1.1-0.4-2.1-0.6-3.1-0.7c-2.1,0-3.7,0.7-5,2c-1.3,1.4-1.9,3.1-1.9,5.2v18.2c0,2,0.5,4.2,1.4,6.4h-8l1.1-3.2L438.9,71.4
			z"/>
		<path class="st0" d="M462.4,59.4c0,3.5,0.2,6,0.8,7.7c0.5,1.7,1.6,3.3,3.3,5c1.7,1.7,4.1,2.5,7.1,2.5c2,0,3.8-0.3,5.4-0.9
			c0.8-0.3,1.8-0.8,2.8-1.4c1.1-0.6,2.3-1.3,3.9-2.3l-1.4,3l-0.9,2.8c-1.8,0.9-3.4,1.7-4.9,2.2c-1.4,0.3-3,0.5-5,0.5
			c-5.6,0-9.7-1.5-12.3-4.5c-2.6-3-3.9-7.5-3.9-13.7c0-6.3,1.4-11.1,4.1-14.6c2.7-3.5,6.5-5.2,11.4-5.2c4.3,0,7.6,1.4,10,4.1
			c2.4,2.7,3.6,6.6,3.6,11.8l-0.1,3.1H462.4z M462.9,56h17.8v-0.5c0-2.7-0.2-4.7-0.6-6c-0.4-1.3-1.2-2.6-2.6-3.8s-3.1-1.8-5.3-1.8
			c-2.2,0-4.1,0.7-5.6,2c-1.6,1.3-2.6,3.2-3.1,5.7L462.9,56z"/>
		<path class="st0" d="M494.2,71.4V32.9v-2.2c0-0.4,0-0.9,0-1.4c-0.1-0.5-0.2-0.9-0.2-1.1c0-0.2-0.1-0.6-0.2-1.1
			c-0.1-0.5-0.4-1.4-0.9-2.7h7.9c-0.6,1.3-1,2.4-1.2,3.3c-0.2,0.9-0.3,2.7-0.3,5.2v38.6c0,0.7,0,1.3,0,1.9c0,0.6,0.1,1.1,0.2,1.6
			c0.1,0.4,0.2,0.8,0.4,1.1c0.1,0.3,0.5,0.9,1,1.9h-8.2c0.4-0.7,0.7-1.2,0.8-1.5c0.1-0.2,0.3-0.7,0.6-1.4
			C494.1,74.4,494.2,73.2,494.2,71.4z"/>
		<path class="st0" d="M513.6,59.4c0,3.5,0.2,6,0.8,7.7c0.5,1.7,1.6,3.3,3.3,5c1.7,1.7,4.1,2.5,7.1,2.5c2,0,3.8-0.3,5.4-0.9
			c0.8-0.3,1.8-0.8,2.8-1.4c1.1-0.6,2.3-1.3,3.9-2.3l-1.4,3l-0.9,2.8c-1.8,0.9-3.4,1.7-4.9,2.2c-1.4,0.3-3,0.5-5,0.5
			c-5.6,0-9.7-1.5-12.3-4.5c-2.6-3-3.9-7.5-3.9-13.7c0-6.3,1.4-11.1,4.1-14.6s6.5-5.2,11.4-5.2c4.3,0,7.6,1.4,10,4.1
			c2.4,2.7,3.6,6.6,3.6,11.8l-0.1,3.1H513.6z M514.2,56H532v-0.5c0-2.7-0.2-4.7-0.6-6c-0.4-1.3-1.2-2.6-2.6-3.8
			c-1.3-1.2-3.1-1.8-5.3-1.8c-2.2,0-4.1,0.7-5.6,2c-1.6,1.3-2.6,3.2-3.1,5.7L514.2,56z"/>
		<path class="st0" d="M552.2,74.8c2,0,3.7-0.6,5.1-1.7c1.4-1.1,2.1-2.5,2.1-4.2c0-2.8-2.3-5.3-6.8-7.4l-2.4-1
			c-5-2.4-7.5-5.7-7.5-10.1c0-3.1,1.1-5.5,3.4-7.3c2.2-1.8,5.3-2.6,9.3-2.6c2.5,0,5.3,0.6,8.4,1.8v2.5v2.6c-2-1.2-3.6-2-4.8-2.4
			c-1.2-0.4-2.6-0.7-4.1-0.7c-2,0-3.7,0.5-5.1,1.5c-1.3,1-2,2.3-2,3.9c0,1.5,0.5,2.8,1.5,3.9c0.8,0.8,3,2.2,6.4,4.2
			c3.3,1.7,5.6,3.3,7,4.9c1.4,1.6,2.1,3.5,2.1,5.8c0,2.9-1.2,5.3-3.6,7.2c-2.4,1.9-5.5,2.9-9.2,2.9c-2,0-3.4-0.1-4.4-0.3
			c-1-0.2-2.6-0.7-4.8-1.6v-2.8v-3.6c1.8,1.6,3.5,2.9,4.9,3.6C549,74.4,550.6,74.8,552.2,74.8z"/>
		<path class="st0" d="M579.9,74.8c2,0,3.7-0.6,5.1-1.7c1.4-1.1,2.1-2.5,2.1-4.2c0-2.8-2.3-5.3-6.8-7.4l-2.4-1
			c-5-2.4-7.5-5.7-7.5-10.1c0-3.1,1.1-5.5,3.4-7.3c2.2-1.8,5.3-2.6,9.3-2.6c2.5,0,5.3,0.6,8.4,1.8v2.5v2.6c-2-1.2-3.6-2-4.8-2.4
			c-1.2-0.4-2.6-0.7-4.1-0.7c-2,0-3.7,0.5-5.1,1.5c-1.3,1-2,2.3-2,3.9c0,1.5,0.5,2.8,1.5,3.9c0.8,0.8,3,2.2,6.4,4.2
			c3.3,1.7,5.6,3.3,7,4.9c1.4,1.6,2.1,3.5,2.1,5.8c0,2.9-1.2,5.3-3.6,7.2c-2.4,1.9-5.5,2.9-9.2,2.9c-2,0-3.4-0.1-4.4-0.3
			c-1-0.2-2.6-0.7-4.8-1.6v-2.8v-3.6c1.8,1.6,3.5,2.9,4.9,3.6C576.7,74.4,578.2,74.8,579.9,74.8z"/>
	</g>
</g>
</svg>
